# xmcd
#
# Track frame offsets: 
#        150
#        13936
#        27584
#        41246
#        54972
#        70267
#        83806
#        98798
#        112660
#        126269
#        139043
#        152578
#        166003
#        180025
#        193983
#        206548
#        219739
#        232389
#        247407
#        261257
#        275302
#        288703
#
# Disc length: 4027 seconds
#
# Revision: 0
# Processed by: cddbd v1.5.2PL0 Copyright (c) Steve Scherf et al.
# Submitted via: ExactAudioCopy v0.95b3
#
DISCID=490fb916
DTITLE=Jelly Roll Morton  - Volume 8 1930-1934 Complete Edition
DYEAR=1900
DGENRE=
TTITLE0=Crazy Chords
TTITLE1=Crazy Chords
TTITLE2=Promrose Stomp
TTITLE3=Primrose Stomp
TTITLE4=Big Time Woman
TTITLE5=I'm Her Papa. She's My Mama
TTITLE6=I'm Her Papa. She's My Mama
TTITLE7=New Crawley Blues
TTITLE8=She Saves Her Sweetest Smiles For Me
TTITLE9=Low Gravy
TTITLE10=Strokin' Away
TTITLE11=Strokin' Away
TTITLE12=Blue Blood Blues
TTITLE13=Blue Blood Blues
TTITLE14=Mushmouth Shuffle
TTITLE15=Gambling Jack
TTITLE16=Gambling Jack
TTITLE17=Fickle Fay Creep
TTITLE18=Never Had No Lovin'
TTITLE19=Never Had No Lovin'
TTITLE20=I'm Alone Without You
TTITLE21=Sergeant Dunn's Bugle Call Blues
EXTD=
EXTT0=
EXTT1=
EXTT2=
EXTT3=
EXTT4=
EXTT5=
EXTT6=
EXTT7=
EXTT8=
EXTT9=
EXTT10=
EXTT11=
EXTT12=
EXTT13=
EXTT14=
EXTT15=
EXTT16=
EXTT17=
EXTT18=
EXTT19=
EXTT20=
EXTT21=
PLAYORDER=
